<svg xmlns="http://www.w3.org/2000/svg" width="179.433" height="84.262" viewBox="0 0 179.433 84.262">
  <g id="Group_30821" data-name="Group 30821" transform="translate(-139.001 -23.151)">
    <path id="Path_403" data-name="Path 403" d="M151.189,76.806,146.962,62.02h3.414l2.451,10.271h.13l2.689-10.271h2.928l2.69,10.3h.128l2.452-10.3h3.412l-4.237,14.786h-3.046l-2.8-9.666h-.12l-2.808,9.666Z" transform="translate(3.382 16.51)" fill="#fff"/>
    <rect id="Rectangle_4954" data-name="Rectangle 4954" width="3.116" height="14.786" transform="translate(175.704 78.53)" fill="#fff"/>
    <path id="Path_404" data-name="Path 404" d="M174.255,74.257h2.56a2.93,2.93,0,0,0,1.9-.506,1.667,1.667,0,0,0,.6-1.341,2.019,2.019,0,0,0-.292-1.087,1.988,1.988,0,0,0-.839-.738,2.925,2.925,0,0,0-1.3-.268h-2.63Zm0-6.044h2.322a2.727,2.727,0,0,0,1.145-.228,1.864,1.864,0,0,0,.789-.65,1.742,1.742,0,0,0,.288-1.007,1.627,1.627,0,0,0-.56-1.285,2.36,2.36,0,0,0-1.6-.492h-2.382Zm-3.116,8.594V62.021h5.914a6.7,6.7,0,0,1,2.72.486,3.662,3.662,0,0,1,1.641,1.339,3.547,3.547,0,0,1,.551,1.966,3.178,3.178,0,0,1-.352,1.519,3.037,3.037,0,0,1-.953,1.07,3.774,3.774,0,0,1-1.375.586v.15a3.425,3.425,0,0,1,1.589.476,3.354,3.354,0,0,1,1.205,1.227,3.653,3.653,0,0,1,.462,1.879,3.772,3.772,0,0,1-2.292,3.558,6.554,6.554,0,0,1-2.8.531Z" transform="translate(13.651 16.51)" fill="#fff"/>
    <path id="Path_405" data-name="Path 405" d="M182.949,76.806V62.02h9.963V64.6h-6.847v3.474H192.4V70.6h-6.332v3.622h6.867v2.58Z" transform="translate(18.667 16.51)" fill="#fff"/>
    <path id="Path_406" data-name="Path 406" d="M210.29,68.8a4.316,4.316,0,0,1-2.275-.608,4.2,4.2,0,0,1-1.581-1.744,6.645,6.645,0,0,1,0-5.417,4.238,4.238,0,0,1,1.581-1.744,4.289,4.289,0,0,1,2.273-.608,4.729,4.729,0,0,1,1.466.224,4,4,0,0,1,1.227.655,3.655,3.655,0,0,1,.9,1.051,4.053,4.053,0,0,1,.473,1.411h-1.495a2.293,2.293,0,0,0-.9-1.472,2.463,2.463,0,0,0-.759-.385,3.038,3.038,0,0,0-.89-.128,2.806,2.806,0,0,0-1.526.426,2.882,2.882,0,0,0-1.064,1.257,4.784,4.784,0,0,0-.386,2.027,4.714,4.714,0,0,0,.39,2.029,2.871,2.871,0,0,0,1.064,1.247,2.793,2.793,0,0,0,1.515.423,3.043,3.043,0,0,0,.886-.125,2.5,2.5,0,0,0,.761-.378,2.322,2.322,0,0,0,.58-.611,2.355,2.355,0,0,0,.328-.836h1.495a3.884,3.884,0,0,1-.456,1.339,3.717,3.717,0,0,1-.881,1.044,4.01,4.01,0,0,1-1.224.682,4.5,4.5,0,0,1-1.5.241" transform="translate(28.398 15.089)" fill="#fff"/>
    <path id="Path_407" data-name="Path 407" d="M216.755,66.859a1.734,1.734,0,0,0,1.124-.358,2.124,2.124,0,0,0,.66-.949,3.786,3.786,0,0,0,.214-1.294,3.854,3.854,0,0,0-.214-1.309,2.122,2.122,0,0,0-.66-.953,1.939,1.939,0,0,0-2.24,0,2.151,2.151,0,0,0-.657.953,3.752,3.752,0,0,0-.219,1.309,3.686,3.686,0,0,0,.219,1.294,2.153,2.153,0,0,0,.657.949,1.717,1.717,0,0,0,1.116.358m0,1.211a3.42,3.42,0,0,1-1.817-.476,3.2,3.2,0,0,1-1.2-1.338,4.448,4.448,0,0,1-.426-2,4.51,4.51,0,0,1,.426-2.015,3.2,3.2,0,0,1,1.2-1.339,3.711,3.711,0,0,1,3.636,0,3.224,3.224,0,0,1,1.2,1.339,4.472,4.472,0,0,1,.429,2.015,4.411,4.411,0,0,1-.429,2,3.22,3.22,0,0,1-1.2,1.338,3.413,3.413,0,0,1-1.819.476" transform="translate(31.563 15.834)" fill="#fff"/>
    <rect id="Rectangle_4955" data-name="Rectangle 4955" width="6.775" height="1.244" transform="translate(253.472 78.969)" fill="#fff"/>
    <path id="Path_408" data-name="Path 408" d="M227.794,68.624l-2.726-9.856h1.562l1.918,7.634h.093l2-7.634h1.547l1.992,7.641h.1l1.912-7.641h1.574l-2.745,9.856h-1.5l-2.072-7.376h-.078l-2.07,7.376Z" transform="translate(36.558 15.128)" fill="#fff"/>
    <path id="Path_409" data-name="Path 409" d="M238.154,66.859a1.733,1.733,0,0,0,1.124-.358,2.124,2.124,0,0,0,.66-.949,3.786,3.786,0,0,0,.214-1.294,3.854,3.854,0,0,0-.214-1.309,2.122,2.122,0,0,0-.66-.953,1.938,1.938,0,0,0-2.24,0,2.151,2.151,0,0,0-.657.953,3.753,3.753,0,0,0-.219,1.309,3.687,3.687,0,0,0,.219,1.294,2.153,2.153,0,0,0,.657.949,1.717,1.717,0,0,0,1.116.358m0,1.211a3.42,3.42,0,0,1-1.817-.476,3.2,3.2,0,0,1-1.2-1.338,4.448,4.448,0,0,1-.426-2,4.51,4.51,0,0,1,.426-2.015,3.2,3.2,0,0,1,1.2-1.339,3.711,3.711,0,0,1,3.636,0,3.224,3.224,0,0,1,1.2,1.339,4.472,4.472,0,0,1,.429,2.015,4.41,4.41,0,0,1-.429,2,3.22,3.22,0,0,1-1.2,1.338,3.413,3.413,0,0,1-1.819.476" transform="translate(40.652 15.834)" fill="#fff"/>
    <path id="Path_410" data-name="Path 410" d="M241.226,67.922v-7.4h1.382V61.71h.08a1.828,1.828,0,0,1,.718-.943,2.027,2.027,0,0,1,1.161-.348c.087,0,.192,0,.313.01s.219.014.295.024V61.83a1.967,1.967,0,0,0-.308-.054,3.881,3.881,0,0,0-.446-.026,1.9,1.9,0,0,0-.91.214,1.591,1.591,0,0,0-.856,1.453v4.505Z" transform="translate(43.421 15.83)" fill="#fff"/>
    <path id="Path_411" data-name="Path 411" d="M250.089,68.623l-2.646-3.506.993-1.012,3.427,4.518Zm-3.334-2.508-.02-1.752h.258l2.945-3.136h1.72L248.3,64.8h-.239Zm-1.324-7.349h1.429v9.856h-1.429Z" transform="translate(45.207 15.128)" fill="#fff"/>
    <path id="Path_412" data-name="Path 412" d="M251.327,61.344h1.429v7.4h-1.429Zm.721-1.138a.9.9,0,0,1-.641-.251.824.824,0,0,1,0-1.211.937.937,0,0,1,1.279,0,.818.818,0,0,1,0,1.211.9.9,0,0,1-.638.251" transform="translate(47.633 15.011)" fill="#fff"/>
    <path id="Path_413" data-name="Path 413" d="M255.621,63.532v4.385h-1.429v-7.4h1.389v1.218h.1a2.089,2.089,0,0,1,.785-.957,2.466,2.466,0,0,1,1.378-.352,2.667,2.667,0,0,1,1.318.313,2.136,2.136,0,0,1,.882.936,3.4,3.4,0,0,1,.314,1.54v4.7h-1.429V63.393a1.784,1.784,0,0,0-.425-1.261,1.484,1.484,0,0,0-1.15-.46,1.775,1.775,0,0,0-.889.222,1.57,1.57,0,0,0-.618.631,2.055,2.055,0,0,0-.225,1.006" transform="translate(48.928 15.835)" fill="#fff"/>
    <path id="Path_414" data-name="Path 414" d="M263.609,66.608a1.7,1.7,0,0,0,1.432-.645,2.852,2.852,0,0,0,.5-1.79,3.634,3.634,0,0,0-.218-1.312,1.943,1.943,0,0,0-.647-.886,1.926,1.926,0,0,0-2.147.013,2.014,2.014,0,0,0-.651.906,3.534,3.534,0,0,0-.219,1.279,3.43,3.43,0,0,0,.219,1.275,1.826,1.826,0,0,0,.657.856,1.851,1.851,0,0,0,1.076.3m.013,4.234a3.783,3.783,0,0,1-2.083-.5,2.692,2.692,0,0,1-1.053-1.178l1.231-.509a3.236,3.236,0,0,0,.353.45,1.789,1.789,0,0,0,.6.4,2.432,2.432,0,0,0,.973.167,2.217,2.217,0,0,0,1.349-.393,1.462,1.462,0,0,0,.536-1.261V66.575h-.1a2.86,2.86,0,0,1-.365.52,2.092,2.092,0,0,1-.668.5,2.474,2.474,0,0,1-1.1.212,3.019,3.019,0,0,1-1.572-.415,2.924,2.924,0,0,1-1.111-1.217,4.3,4.3,0,0,1-.413-1.98,4.606,4.606,0,0,1,.407-2.022,3.069,3.069,0,0,1,1.107-1.294,2.894,2.894,0,0,1,1.6-.449,2.35,2.35,0,0,1,1.113.228,2.067,2.067,0,0,1,.667.533,4.436,4.436,0,0,1,.369.536h.107V60.521h1.395v7.563a2.444,2.444,0,0,1-1.634,2.463,4.628,4.628,0,0,1-1.7.295" transform="translate(51.478 15.835)" fill="#fff"/>
    <path id="Path_415" data-name="Path 415" d="M209.5,80.233a4.835,4.835,0,0,1-1.916-.348,2.8,2.8,0,0,1-1.775-2.536H207.3a1.543,1.543,0,0,0,.348.889,1.811,1.811,0,0,0,.784.527,3.16,3.16,0,0,0,1.059.171,3,3,0,0,0,1.124-.2,1.8,1.8,0,0,0,.778-.56,1.326,1.326,0,0,0,.282-.842,1.033,1.033,0,0,0-.248-.715,1.873,1.873,0,0,0-.672-.46,6.779,6.779,0,0,0-.953-.321l-1.157-.318a4.413,4.413,0,0,1-1.879-.949,2.146,2.146,0,0,1-.688-1.657,2.471,2.471,0,0,1,.46-1.489,3.049,3.049,0,0,1,1.25-.99,4.322,4.322,0,0,1,1.777-.352,4.178,4.178,0,0,1,1.77.352,3.054,3.054,0,0,1,1.211.966,2.42,2.42,0,0,1,.466,1.4h-1.442a1.417,1.417,0,0,0-.631-1.057,2.436,2.436,0,0,0-1.406-.378,2.643,2.643,0,0,0-1.042.189,1.577,1.577,0,0,0-.688.519,1.251,1.251,0,0,0-.241.761,1.027,1.027,0,0,0,.286.754,2.082,2.082,0,0,0,.7.46,7.173,7.173,0,0,0,.8.275l.96.256a8.031,8.031,0,0,1,.965.319,3.92,3.92,0,0,1,.923.519,2.476,2.476,0,0,1,.688.794,2.337,2.337,0,0,1,.261,1.141,2.627,2.627,0,0,1-.429,1.479,2.893,2.893,0,0,1-1.244,1.026,4.723,4.723,0,0,1-1.972.373" transform="translate(28.376 19.936)" fill="#fff"/>
    <path id="Path_416" data-name="Path 416" d="M216.007,78.25a1.664,1.664,0,0,0,1.073-.343,2.122,2.122,0,0,0,.651-.936,4.111,4.111,0,0,0,0-2.65,2.048,2.048,0,0,0-.648-.919,1.691,1.691,0,0,0-1.079-.338,1.72,1.72,0,0,0-1.057.321,1.962,1.962,0,0,0-.653.9,3.757,3.757,0,0,0-.221,1.352A3.821,3.821,0,0,0,214.3,77a2.039,2.039,0,0,0,.658.919,1.679,1.679,0,0,0,1.049.331m-3.334,3.844V71.933h1.391v1.2h.118a4.99,4.99,0,0,1,.366-.536,2.063,2.063,0,0,1,.658-.533,2.344,2.344,0,0,1,1.106-.228,2.869,2.869,0,0,1,1.591.45,3.064,3.064,0,0,1,1.1,1.3,4.8,4.8,0,0,1,.4,2.057,4.843,4.843,0,0,1-.4,2.046,3.08,3.08,0,0,1-1.1,1.318,2.85,2.85,0,0,1-1.6.459,2.311,2.311,0,0,1-1.1-.228,2.122,2.122,0,0,1-.668-.531,4.422,4.422,0,0,1-.373-.537h-.08v3.917Z" transform="translate(31.293 20.681)" fill="#fff"/>
    <path id="Path_417" data-name="Path 417" d="M221.641,78.337a2.078,2.078,0,0,0,1.024-.235,1.655,1.655,0,0,0,.648-.618,1.589,1.589,0,0,0,.225-.814v-.959a.8.8,0,0,1-.3.138,4.032,4.032,0,0,1-.5.113c-.185.03-.366.058-.543.083s-.325.043-.443.056a3.968,3.968,0,0,0-.761.182,1.307,1.307,0,0,0-.553.358.9.9,0,0,0-.208.618.914.914,0,0,0,.4.808,1.752,1.752,0,0,0,1.006.271m-.312,1.151a2.989,2.989,0,0,1-1.269-.262,2.107,2.107,0,0,1-.9-.764,2.173,2.173,0,0,1-.331-1.224,1.957,1.957,0,0,1,.242-1.029,1.816,1.816,0,0,1,.651-.638,3.335,3.335,0,0,1,.913-.358,9.279,9.279,0,0,1,1.032-.184q.669-.073,1.079-.127a1.588,1.588,0,0,0,.6-.168.409.409,0,0,0,.19-.375v-.033a1.294,1.294,0,0,0-.355-.973,1.446,1.446,0,0,0-1.049-.343,1.871,1.871,0,0,0-1.141.313,1.687,1.687,0,0,0-.578.712l-1.356-.311a2.6,2.6,0,0,1,.711-1.089,2.931,2.931,0,0,1,1.073-.606,4.152,4.152,0,0,1,1.267-.192,4.644,4.644,0,0,1,.939.1,2.832,2.832,0,0,1,.936.378,2.061,2.061,0,0,1,.718.784,2.759,2.759,0,0,1,.278,1.316v4.908h-1.409V78.317h-.054a1.933,1.933,0,0,1-.413.543,2.215,2.215,0,0,1-.717.449,2.767,2.767,0,0,1-1.053.18" transform="translate(33.908 20.681)" fill="#fff"/>
    <path id="Path_418" data-name="Path 418" d="M228.264,79.481a3.371,3.371,0,0,1-1.839-.49,3.214,3.214,0,0,1-1.19-1.349,4.871,4.871,0,0,1,.009-3.965,3.269,3.269,0,0,1,1.2-1.351,3.323,3.323,0,0,1,1.809-.486,3.514,3.514,0,0,1,1.5.308,2.707,2.707,0,0,1,1.066.869,2.634,2.634,0,0,1,.479,1.311h-1.4a1.668,1.668,0,0,0-.282-.643,1.5,1.5,0,0,0-.544-.463,1.755,1.755,0,0,0-.8-.171,1.782,1.782,0,0,0-1.05.313,2.062,2.062,0,0,0-.7.9,3.438,3.438,0,0,0-.252,1.375,3.644,3.644,0,0,0,.245,1.4,2.036,2.036,0,0,0,.7.916,1.771,1.771,0,0,0,1.056.321,1.67,1.67,0,0,0,1.061-.343,1.558,1.558,0,0,0,.566-.939h1.4a2.652,2.652,0,0,1-1.509,2.168,3.392,3.392,0,0,1-1.527.325" transform="translate(36.451 20.681)" fill="#fff"/>
    <path id="Path_419" data-name="Path 419" d="M234.314,79.481a3.613,3.613,0,0,1-1.878-.47,3.122,3.122,0,0,1-1.222-1.326,4.445,4.445,0,0,1-.426-2,4.548,4.548,0,0,1,.42-2,3.247,3.247,0,0,1,1.184-1.354,3.282,3.282,0,0,1,1.8-.486,3.668,3.668,0,0,1,1.217.205,2.931,2.931,0,0,1,1.059.648,3.093,3.093,0,0,1,.745,1.151,4.738,4.738,0,0,1,.274,1.707v.516H231.6V74.989h5.141l-.668.358a3.192,3.192,0,0,0-.211-1.2,1.794,1.794,0,0,0-.633-.816,1.769,1.769,0,0,0-1.042-.295,1.846,1.846,0,0,0-1.063.3,1.911,1.911,0,0,0-.671.788,2.476,2.476,0,0,0-.232,1.07v.735a2.876,2.876,0,0,0,.265,1.289,1.9,1.9,0,0,0,.738.808,2.137,2.137,0,0,0,1.1.278,2.2,2.2,0,0,0,.745-.12,1.579,1.579,0,0,0,.578-.356,1.532,1.532,0,0,0,.37-.59l1.363.258a2.515,2.515,0,0,1-.583,1.046,2.8,2.8,0,0,1-1.049.7,3.916,3.916,0,0,1-1.439.248" transform="translate(38.987 20.681)" fill="#fff"/>
    <path id="Path_420" data-name="Path 420" d="M140.7,93.411h82.5V53.82H140.7ZM224.89,95.1H139V52.127H224.89Z" transform="translate(0 12.308)" fill="#fff"/>
    <path id="Path_421" data-name="Path 421" d="M215.03,48.095a8.133,8.133,0,0,1-3.11-.546,4.505,4.505,0,0,1-2.064-1.627,4.857,4.857,0,0,1-.779-2.68h3.016a2.323,2.323,0,0,0,.437,1.235,2.255,2.255,0,0,0,1.012.749,3.994,3.994,0,0,0,1.459.248,3.823,3.823,0,0,0,1.385-.228,2.055,2.055,0,0,0,.912-.64,1.51,1.51,0,0,0,.323-.957,1.216,1.216,0,0,0-.293-.833,2.3,2.3,0,0,0-.853-.577,8.646,8.646,0,0,0-1.364-.426l-1.619-.4a6.619,6.619,0,0,1-2.946-1.425,3.35,3.35,0,0,1-1.081-2.614,3.9,3.9,0,0,1,.728-2.347,4.807,4.807,0,0,1,1.995-1.569,7.065,7.065,0,0,1,2.884-.561,6.784,6.784,0,0,1,2.872.567,4.607,4.607,0,0,1,1.916,1.567,4.1,4.1,0,0,1,.708,2.312H217.56A1.8,1.8,0,0,0,216.821,36a2.934,2.934,0,0,0-1.781-.487,3.446,3.446,0,0,0-1.285.214,1.8,1.8,0,0,0-.808.59,1.413,1.413,0,0,0-.279.863,1.254,1.254,0,0,0,.318.869,2.344,2.344,0,0,0,.849.576,7.264,7.264,0,0,0,1.165.372l1.321.328a9.6,9.6,0,0,1,1.775.58,5.55,5.55,0,0,1,1.413.889,3.67,3.67,0,0,1,.929,1.235,3.862,3.862,0,0,1,.328,1.633,4.084,4.084,0,0,1-.68,2.357,4.351,4.351,0,0,1-1.96,1.537,7.918,7.918,0,0,1-3.1.541" transform="translate(29.765 4.141)" fill="#fff"/>
    <path id="Path_422" data-name="Path 422" d="M199.789,64.435H239.38V24.844H199.789Zm41.285,1.694H198.1V23.151h42.978Z" transform="translate(25.101)" fill="#fff"/>
  </g>
</svg>
